<?xml version="1.0" encoding="iso-8859-1"?>
<!-- Generator: Adobe Illustrator 19.0.0, SVG Export Plug-In . SVG Version: 6.00 Build 0)  -->
<svg version="1.1" id="Layer_1" xmlns="http://www.w3.org/2000/svg" xmlns:xlink="http://www.w3.org/1999/xlink" x="0px" y="0px"
	 viewBox="0 0 512 512" style="enable-background:new 0 0 512 512;" xml:space="preserve">
<g>
	<g>
		<path d="M117.307,178.281h-83.43c-5.759,0-10.429,4.669-10.429,10.429v312.861c0,5.759,4.669,10.429,10.429,10.429h83.43
			c5.759,0,10.429-4.669,10.429-10.429V188.71C127.735,182.951,123.066,178.281,117.307,178.281z M106.878,491.142H44.306V199.138
			h62.572V491.142z"/>
	</g>
</g>
<g>
	<g>
		<path d="M83.835,452.235c-0.937-0.942-2.083-1.67-3.335-2.195c-3.86-1.563-8.55-0.728-11.366,2.195
			c-1.044,1.039-1.777,2.083-2.296,3.437c-0.518,1.253-0.835,2.607-0.835,3.967c0,2.709,1.146,5.423,3.131,7.404
			c1.874,1.874,4.588,3.025,7.297,3.025c2.816,0,5.423-1.151,7.404-3.025c0.525-0.524,0.942-1.044,1.253-1.563
			c0.417-0.626,0.728-1.252,1.045-1.879c0.208-0.626,0.416-1.253,0.518-1.879c0.209-0.728,0.209-1.456,0.209-2.083
			C86.859,456.924,85.816,454.215,83.835,452.235z"/>
	</g>
</g>
<g>
	<g>
		<path d="M474.28,283.476c6.229-9.604,17.451-30.706,13.418-53.147c-2.952-16.433-13.192-29.9-30.431-40.242
			c-1.623-0.973-3.478-1.377-5.367-1.377h-78.815c12.429-36.5,38.237-128.437-7.669-174.342
			c-1.89-1.884-18.968-18.381-36.776-13.452c-10.882,3.015-18.43,12.632-22.431,28.642c-0.266,1.069-0.363,2.16-0.287,3.26
			c0.097,1.37,7.558,137.711-148.995,176.849c-4.639,1.161-8.336,5.325-8.336,10.112v239.86c0,4.726,3.615,8.86,8.178,10.077
			c4.283,1.141,72.399,18.897,148.844,18.897c40.116,0,82.703-4.894,119.555-19.646c9.132-4.568,23.423-19.768,17.893-46.323
			c4.298-3.096,9.795-7.766,14.546-14.105c8.158-10.872,15.443-28.297,6.485-51.375C475.276,342.581,487.036,314.782,474.28,283.476
			z M454.188,275.838c-2.542,3.172-3.006,7.536-1.188,11.177c17.115,34.229-7.455,59.924-8.473,60.963
			c-3.172,3.172-3.962,8.02-1.955,12.038c15.583,31.159-12.933,46.909-16.192,48.579c-4.639,2.322-6.871,7.704-5.231,12.628
			c6.737,20.201-3.278,27.594-5.508,28.995c-86.867,34.377-212.297,8.728-246.19,1.227V227.809
			C325.881,184.678,326.808,50.816,326.37,33.222c1.915-6.941,4.858-11.488,7.608-12.257c4.221-1.181,12.401,3.921,16.582,8.041
			c46.582,46.588-1.708,164.721-2.202,165.907c-1.339,3.218-0.95,7.003,0.985,9.9c1.935,2.902,5.216,4.753,8.699,4.753h90.864
			c10.505,7.822,16.485,14.826,18.245,24.47C470.895,254.528,454.334,275.644,454.188,275.838z"/>
	</g>
</g>
<g>
</g>
<g>
</g>
<g>
</g>
<g>
</g>
<g>
</g>
<g>
</g>
<g>
</g>
<g>
</g>
<g>
</g>
<g>
</g>
<g>
</g>
<g>
</g>
<g>
</g>
<g>
</g>
<g>
</g>
</svg>
