<?xml version='1.0' encoding='iso-8859-1'?>
<!DOCTYPE svg PUBLIC '-//W3C//DTD SVG 1.1//EN' 'http://www.w3.org/Graphics/SVG/1.1/DTD/svg11.dtd'>
<svg version="1.1" xmlns="http://www.w3.org/2000/svg" viewBox="0 0 297 297" xmlns:xlink="http://www.w3.org/1999/xlink" enable-background="new 0 0 297 297">
  <g>
    <path d="m214.577,140.942c-4.22-1.35-16.475-5.056-16.995-5.214-4.664-1.411-9.618,1.067-11.287,5.645l-23.111,63.411-5.437-37.649 10.407-18.024c1.641-2.842 1.641-6.343 0-9.184-1.641-2.842-4.672-4.592-7.954-4.592h-23.399c-3.282,0-6.313,1.751-7.954,4.592-1.641,2.842-1.641,6.343 0,9.184l10.409,18.029-5.348,37.897-23.203-63.664c-1.669-4.578-6.624-7.058-11.287-5.645-0.52,0.157-12.775,3.864-16.995,5.214-23.111,7.397-38.639,28.895-38.639,53.496v93.377c0,5.072 4.112,9.184 9.184,9.184h191.062c5.072,0 9.184-4.112 9.184-9.184v-93.377c0.001-24.601-15.527-46.099-38.637-53.496zm-152.424,137.689v-84.193c7.10543e-15-16.582 10.396-31.05 25.869-36.002 1.776-0.569 5.149-1.607 8.403-2.601l43.445,119.205c0.511,1.401 1.34,2.622 2.387,3.592h-80.104zm172.694-.001h-80.106c1.048-0.97 1.877-2.191 2.388-3.592l43.446-119.204c3.253,0.994 6.628,2.032 8.403,2.601 15.473,4.952 25.869,19.419 25.869,36.002v84.193z"/>
    <path d="m148.499,113.899c31.402,0 56.95-25.548 56.95-56.95s-25.547-56.949-56.95-56.949-56.949,25.547-56.949,56.949 25.547,56.95 56.949,56.95zm0-95.53c21.273,0 38.582,17.307 38.582,38.58s-17.308,38.582-38.582,38.582-38.58-17.308-38.58-38.582 17.307-38.58 38.58-38.58z"/>
  </g>
</svg>
