<?xml version="1.0" encoding="iso-8859-1"?>
<!-- Generator: Adobe Illustrator 19.1.0, SVG Export Plug-In . SVG Version: 6.00 Build 0)  -->
<svg version="1.1" id="Capa_1" xmlns="http://www.w3.org/2000/svg" xmlns:xlink="http://www.w3.org/1999/xlink" x="0px" y="0px"
	 viewBox="0 0 331.783 331.783" style="enable-background:new 0 0 331.783 331.783;" xml:space="preserve">
<g>
	<path d="M309.28,215.116h-29.872v-80.847c0-41.648-27.425-77.007-65.162-88.979C213.534,20.198,192.914,0,167.652,0h-0.791
		c-24.983,0-45.436,19.753-46.572,44.46c-39.15,11.092-67.915,47.154-67.915,89.809v80.847H22.503v76.667h96.486
		c3.607,22.64,23.263,40,46.902,40s43.295-17.36,46.902-40h96.486v-76.667H309.28z M166.861,15h0.791
		c15.809,0,28.946,11.659,31.264,26.83c-4.197-0.58-8.481-0.887-12.835-0.887H145.7c-3.392,0-6.742,0.187-10.041,0.542
		C138.123,26.484,151.173,15,166.861,15z M165.891,316.782c-15.339,0-28.221-10.685-31.617-25h63.234
		C194.112,306.097,181.23,316.782,165.891,316.782z M294.28,276.782H37.503v-46.667h29.872v-95.847
		c0-43.189,35.137-78.326,78.326-78.326h40.381c43.189,0,78.326,35.137,78.326,78.326v95.847h29.872V276.782z"/>
	<g>
	</g>
	<g>
	</g>
	<g>
	</g>
	<g>
	</g>
	<g>
	</g>
	<g>
	</g>
	<g>
	</g>
	<g>
	</g>
	<g>
	</g>
	<g>
	</g>
	<g>
	</g>
	<g>
	</g>
	<g>
	</g>
	<g>
	</g>
	<g>
	</g>
</g>
<g>
</g>
<g>
</g>
<g>
</g>
<g>
</g>
<g>
</g>
<g>
</g>
<g>
</g>
<g>
</g>
<g>
</g>
<g>
</g>
<g>
</g>
<g>
</g>
<g>
</g>
<g>
</g>
<g>
</g>
</svg>
